<?xml version="1.0" encoding="UTF-8" standalone="no"?>
<svg
   xmlns:dc="http://purl.org/dc/elements/1.1/"
   xmlns:cc="http://creativecommons.org/ns#"
   xmlns:rdf="http://www.w3.org/1999/02/22-rdf-syntax-ns#"
   xmlns:svg="http://www.w3.org/2000/svg"
   xmlns="http://www.w3.org/2000/svg"
   viewBox="0 0 1749.3333 1306.6667"
   height="1306.6667"
   width="1749.3333"
   xml:space="preserve"
   id="svg2"
   version="1.1"><metadata
     id="metadata8"><rdf:RDF><cc:Work
         rdf:about=""><dc:format>image/svg+xml</dc:format><dc:type
           rdf:resource="http://purl.org/dc/dcmitype/StillImage" /></cc:Work></rdf:RDF></metadata><defs
     id="defs6" /><g
     transform="matrix(1.3333333,0,0,-1.3333333,0,1306.6667)"
     id="g10"><g
       transform="scale(0.1)"
       id="g12"><path
         id="path14"
         style="fill:#d533a2;fill-opacity:1;fill-rule:nonzero;stroke:none"
         d="M 0,0 H 13120 V 9800 H 0 Z" /><path
         id="path16"
         style="fill:#b4146a;fill-opacity:1;fill-rule:nonzero;stroke:none"
         d="M 10608.5,4680 8565.49,2710 11417.9,3046.56 10608.5,4680" /><path
         id="path18"
         style="fill:#621545;fill-opacity:1;fill-rule:nonzero;stroke:none"
         d="M 11950.2,1313.33 11639.3,2330 9980.57,1490 11950.2,1313.33" /><path
         id="path20"
         style="fill:#9f148e;fill-opacity:1;fill-rule:nonzero;stroke:none"
         d="M 8078.17,740 9980.57,1490 10088.3,165 8078.17,740" /><path
         id="path22"
         style="fill:#6f1956;fill-opacity:1;fill-rule:nonzero;stroke:none"
         d="M 11751.8,0 9980.57,165 11953.4,1401.27 11751.8,0" /><path
         id="path24"
         style="fill:#541540;fill-opacity:1;fill-rule:nonzero;stroke:none"
         d="M 11883,1350 11751.8,0 13120,675 11883,1350" /><path
         id="path26"
         style="fill:#5f184e;fill-opacity:1;fill-rule:nonzero;stroke:none"
         d="m 13120,2250 -1237,-900 h 1237 v 900" /><path
         id="path28"
         style="fill:#49153e;fill-opacity:1;fill-rule:nonzero;stroke:none"
         d="M 13120,675 11751.8,0 H 13120 v 675" /><path
         id="path30"
         style="fill:#521540;fill-opacity:1;fill-rule:nonzero;stroke:none"
         d="m 11639.3,2330 1480.7,440 v -520 l -1237,-900 -243.7,980" /><path
         id="path32"
         style="fill:#3b1330;fill-opacity:1;fill-rule:nonzero;stroke:none"
         d="m 13120,675 v 692.5 L 11883,1350 13120,675" /><path
         id="path34"
         style="fill:#741c68;fill-opacity:1;fill-rule:nonzero;stroke:none"
         d="m 11639.3,2330 524.8,1960 -749.7,-1240 224.9,-720" /><path
         id="path36"
         style="fill:#741c68;fill-opacity:1;fill-rule:nonzero;stroke:none"
         d="M 9980.57,1490 10055.5,200 11883,1350 9980.57,1490" /><path
         id="path38"
         style="fill:#9e1656;fill-opacity:1;fill-rule:nonzero;stroke:none"
         d="M 11414.4,3050 9980.57,1490 8565.49,2710 11414.4,3050" /><path
         id="path40"
         style="fill:#8b1654;fill-opacity:1;fill-rule:nonzero;stroke:none"
         d="m 9980.57,1490 1658.73,840 -224.9,720 -1433.83,-1560" /><path
         id="path42"
         style="fill:#8b1654;fill-opacity:1;fill-rule:nonzero;stroke:none"
         d="m 12164.1,4290 955.9,240 V 2770 l -1480.7,-440 524.8,1960" /><path
         id="path44"
         style="fill:#8b1654;fill-opacity:1;fill-rule:nonzero;stroke:none"
         d="M 9980.57,1490 8565.49,2710 8078.17,740 l 1902.4,750" /><path
         id="path46"
         style="fill:#671442;fill-opacity:1;fill-rule:nonzero;stroke:none"
         d="M 10055.5,200 9980.57,0 h 1771.23 l -1696.3,200" /><path
         id="path48"
         style="fill:#66174c;fill-opacity:1;fill-rule:nonzero;stroke:none"
         d="M 8078.17,740 8031.32,0 h 1949.25 l 74.93,200 -1977.33,540" /><path
         id="path50"
         style="fill:#99177c;fill-opacity:1;fill-rule:nonzero;stroke:none"
         d="M 7047.31,1560 8565.49,2710 8078.17,740 7047.31,1560" /><path
         id="path52"
         style="fill:#9d1662;fill-opacity:1;fill-rule:nonzero;stroke:none"
         d="m 10608.5,4680 1555.6,-390 -749.7,-1240 -805.9,1630" /><path
         id="path54"
         style="fill:#9d1662;fill-opacity:1;fill-rule:nonzero;stroke:none"
         d="m 12379.7,5080 -215.6,-790 955.9,240 v 1240 l -740.3,-690" /><path
         id="path56"
         style="fill:#ad1575;fill-opacity:1;fill-rule:nonzero;stroke:none"
         d="m 10608.5,4680 1771.2,400 -215.6,-790 -1555.6,390" /><path
         id="path58"
         style="fill:#bf188e;fill-opacity:1;fill-rule:nonzero;stroke:none"
         d="m 10608.5,4680 712.2,1990 1059,-1590 -1771.2,-400" /><path
         id="path60"
         style="fill:#8b1654;fill-opacity:1;fill-rule:nonzero;stroke:none"
         d="m 13120,6770 -740.3,-1690 740.3,690 v 1000" /><path
         id="path62"
         style="fill:#d21a95;fill-opacity:1;fill-rule:nonzero;stroke:none"
         d="m 11320.7,6670 1799.3,100 -740.3,-1690 -1059,1590" /><path
         id="path64"
         style="fill:#dc299e;fill-opacity:1;fill-rule:nonzero;stroke:none"
         d="m 11414.4,8810 -93.7,-2140 1799.3,100 -1705.6,2040" /><path
         id="path66"
         style="fill:#c81f98;fill-opacity:1;fill-rule:nonzero;stroke:none"
         d="M 13120,8040 V 6770 L 11414.4,8810 13120,8040" /><path
         id="path68"
         style="fill:#be2198;fill-opacity:1;fill-rule:nonzero;stroke:none"
         d="m 12379.7,9800 -965.3,-990 1705.6,-770 v 640 l -740.3,1120" /><path
         id="path70"
         style="fill:#b01e95;fill-opacity:1;fill-rule:nonzero;stroke:none"
         d="M 13120,9800 V 8680 l -740.3,1120 h 740.3" /><path
         id="path72"
         style="fill:#a82296;fill-opacity:1;fill-rule:nonzero;stroke:none"
         d="m 11414.4,8810 -346.7,990 h 1312 l -965.3,-990" /><path
         id="path74"
         style="fill:#b0299b;fill-opacity:1;fill-rule:nonzero;stroke:none"
         d="m 9193.37,9800 2221.03,-990 -346.7,990 H 9193.37" /><path
         id="path76"
         style="fill:#d533a2;fill-opacity:1;fill-rule:nonzero;stroke:none"
         d="M 9193.37,6510 11414.4,8810 9193.37,9800 V 6510" /><path
         id="path78"
         style="fill:#d638a4;fill-opacity:1;fill-rule:nonzero;stroke:none"
         d="M 11320.7,6670 9193.37,6510 11414.4,8810 11320.7,6670" /><path
         id="path80"
         style="fill:#ca2299;fill-opacity:1;fill-rule:nonzero;stroke:none"
         d="M 10608.5,4680 9193.37,6510 11320.7,6670 10608.5,4680" /><path
         id="path82"
         style="fill:#d44eae;fill-opacity:1;fill-rule:nonzero;stroke:none"
         d="M 10608.5,4680 7806.4,5260 9193.37,6510 10608.5,4680" /><path
         id="path84"
         style="fill:#dc299e;fill-opacity:1;fill-rule:nonzero;stroke:none"
         d="M 8303.09,3760 8565.49,2710 10608.5,4680 8303.09,3760" /><path
         id="path86"
         style="fill:#d638a4;fill-opacity:1;fill-rule:nonzero;stroke:none"
         d="m 7806.4,5260 496.69,-1500 2305.41,920 -2802.1,580" /><path
         id="path88"
         style="fill:#d146ab;fill-opacity:1;fill-rule:nonzero;stroke:none"
         d="M 8303.09,3760 6410.06,4130 7806.4,5260 8303.09,3760" /><path
         id="path90"
         style="fill:#c730a0;fill-opacity:1;fill-rule:nonzero;stroke:none"
         d="M 7047.31,1560 8303.09,3760 6410.06,4130 7047.31,1560" /><path
         id="path92"
         style="fill:#b9299b;fill-opacity:1;fill-rule:nonzero;stroke:none"
         d="M 8565.49,2710 8303.09,3760 7047.31,1560 8565.49,2710" /><path
         id="path94"
         style="fill:#b4146a;fill-opacity:1;fill-rule:nonzero;stroke:none"
         d="M 8078.17,740 7232.4,0 h 798.92 l 46.85,740" /><path
         id="path96"
         style="fill:#c0137a;fill-opacity:1;fill-rule:nonzero;stroke:none"
         d="M 7047.31,1560 6803.65,0 h 428.75 l 845.77,740 -1030.86,820" /><path
         id="path98"
         style="fill:#cc0f89;fill-opacity:1;fill-rule:nonzero;stroke:none"
         d="M 5239.54,1179.28 7047.31,1560 6803.65,0 H 6321.89 L 5239.54,1179.28" /><path
         id="path100"
         style="fill:#d650b0;fill-opacity:1;fill-rule:nonzero;stroke:none"
         d="M 5450.39,2484.21 6410.06,4130 7047.31,1560 5450.39,2484.21" /><path
         id="path102"
         style="fill:#dc6dbd;fill-opacity:1;fill-rule:nonzero;stroke:none"
         d="M 6410.06,4130 7151.21,6998.98 7806.4,5260 6410.06,4130" /><path
         id="path104"
         style="fill:#ed37a4;fill-opacity:1;fill-rule:nonzero;stroke:none"
         d="M 9193.37,6510 7151.21,6998.98 7806.4,5260 9193.37,6510" /><path
         id="path106"
         style="fill:#e84faf;fill-opacity:1;fill-rule:nonzero;stroke:none"
         d="M 7806.4,9443.86 9193.37,6510 7151.21,6998.98 7806.4,9443.86" /><path
         id="path108"
         style="fill:#e863b9;fill-opacity:1;fill-rule:nonzero;stroke:none"
         d="M 5450.39,2484.21 5239.54,1179.28 7047.31,1560 5450.39,2484.21" /><path
         id="path110"
         style="fill:#ea7bc4;fill-opacity:1;fill-rule:nonzero;stroke:none"
         d="M 6410.06,4130 4396.15,3865 5450.39,2484.21 6410.06,4130" /><path
         id="path112"
         style="fill:#ec92ce;fill-opacity:1;fill-rule:nonzero;stroke:none"
         d="M 5239.54,1179.28 2414.18,1944.24 5450.39,2484.21 5239.54,1179.28" /><path
         id="path114"
         style="fill:#f6bae0;fill-opacity:1;fill-rule:nonzero;stroke:none"
         d="M 2414.18,1944.24 4396.15,3865 2203.34,5260 1345.9,3050 2414.18,1944.24" /><path
         id="path116"
         style="fill:#f3b5de;fill-opacity:1;fill-rule:nonzero;stroke:none"
         d="M 5450.39,2484.21 4396.15,3865 2414.18,1944.24 5450.39,2484.21" /><path
         id="path118"
         style="fill:#e178c2;fill-opacity:1;fill-rule:nonzero;stroke:none"
         d="M 5239.54,1179.28 3932.29,0 H 1416.18 l 998,1944.24 2825.36,-764.96" /><path
         id="path120"
         style="fill:#db2b9e;fill-opacity:1;fill-rule:nonzero;stroke:none"
         d="M 4986.51,0 5239.54,1179.28 6321.89,0 H 4986.51" /><path
         id="path122"
         style="fill:#de4eaf;fill-opacity:1;fill-rule:nonzero;stroke:none"
         d="M 3932.29,0 H 4986.51 L 5239.54,1179.28 3932.29,0" /><path
         id="path124"
         style="fill:#de4eaf;fill-opacity:1;fill-rule:nonzero;stroke:none"
         d="M 6410.06,4130 5042.74,5595 7151.21,6998.98 6410.06,4130" /><path
         id="path126"
         style="fill:#dd5db6;fill-opacity:1;fill-rule:nonzero;stroke:none"
         d="M 5309.81,7598.95 5042.74,5595 7151.21,6998.98 5309.81,7598.95" /><path
         id="path128"
         style="fill:#cf43a9;fill-opacity:1;fill-rule:nonzero;stroke:none"
         d="M 7806.4,9443.86 9193.37,9800 H 7882.14 l -75.74,-356.14" /><path
         id="path130"
         style="fill:#d55ab4;fill-opacity:1;fill-rule:nonzero;stroke:none"
         d="M 9193.37,6510 V 9800 L 7806.4,9443.86 9193.37,6510" /><path
         id="path132"
         style="fill:#db6fbe;fill-opacity:1;fill-rule:nonzero;stroke:none"
         d="M 5042.74,5595 4396.15,3865 6410.06,4130 5042.74,5595" /><path
         id="path134"
         style="fill:#ca52b0;fill-opacity:1;fill-rule:nonzero;stroke:none"
         d="M 1416.18,0 0,589.641 V 0 h 1416.18" /><path
         id="path136"
         style="fill:#d068bb;fill-opacity:1;fill-rule:nonzero;stroke:none"
         d="M 1345.9,3050 1416.18,0 2414.18,1944.24 1345.9,3050" /><path
         id="path138"
         style="fill:#eaacda;fill-opacity:1;fill-rule:nonzero;stroke:none"
         d="M 2203.34,5260 5042.74,5595 4396.15,3865 2203.34,5260" /><path
         id="path140"
         style="fill:#e78aca;fill-opacity:1;fill-rule:nonzero;stroke:none"
         d="M 5309.81,7598.95 2203.34,5260 l 2839.4,335 267.07,2003.95" /><path
         id="path142"
         style="fill:#eea2d6;fill-opacity:1;fill-rule:nonzero;stroke:none"
         d="M 1345.9,3050 0,5595 2203.34,5260 1345.9,3050" /><path
         id="path144"
         style="fill:#e68ecc;fill-opacity:1;fill-rule:nonzero;stroke:none"
         d="M 0,2270 1345.9,3050 0,5595 V 2270" /><path
         id="path146"
         style="fill:#dc7dc5;fill-opacity:1;fill-rule:nonzero;stroke:none"
         d="M 1416.18,0 0,1374.26 V 2270 L 1345.9,3050 1416.18,0" /><path
         id="path148"
         style="fill:#d371bf;fill-opacity:1;fill-rule:nonzero;stroke:none"
         d="M 0,589.641 V 1374.26 L 1416.18,0 0,589.641" /><path
         id="path150"
         style="fill:#d371bf;fill-opacity:1;fill-rule:nonzero;stroke:none"
         d="M 5309.81,7598.95 7806.4,9443.86 7151.21,6998.98 5309.81,7598.95" /><path
         id="path152"
         style="fill:#c65cb5;fill-opacity:1;fill-rule:nonzero;stroke:none"
         d="M 4649.18,9305 7806.4,9443.86 5309.81,7598.95 4649.18,9305" /><path
         id="path154"
         style="fill:#bf52b0;fill-opacity:1;fill-rule:nonzero;stroke:none"
         d="M 4649.18,7868.94 V 9305 l 660.63,-1706.05 -660.63,269.99" /><path
         id="path156"
         style="fill:#ad39a3;fill-opacity:1;fill-rule:nonzero;stroke:none"
         d="M 7806.4,9443.86 6490.58,9800 h 1391.56 l -75.74,-356.14" /><path
         id="path158"
         style="fill:#bb4dad;fill-opacity:1;fill-rule:nonzero;stroke:none"
         d="m 4649.18,9305 253,495 h 1588.4 L 7806.4,9443.86 4649.18,9305" /><path
         id="path160"
         style="fill:#992d9b;fill-opacity:1;fill-rule:nonzero;stroke:none"
         d="M 980.422,8888.91 235.43,9800 H 0 V 8663.92 l 980.422,224.99" /><path
         id="path162"
         style="fill:#db6fbe;fill-opacity:1;fill-rule:nonzero;stroke:none"
         d="M 0,5595 2062.77,7748.96 2203.34,5260 0,5595" /><path
         id="path164"
         style="fill:#e482c7;fill-opacity:1;fill-rule:nonzero;stroke:none"
         d="M 4585.91,7053.91 2062.77,7748.96 2203.34,5260 4585.91,7053.91" /><path
         id="path166"
         style="fill:#dc75c1;fill-opacity:1;fill-rule:nonzero;stroke:none"
         d="m 5309.81,7598.95 -3247.04,150.01 2523.14,-695.05 723.9,545.04" /><path
         id="path168"
         style="fill:#d264b9;fill-opacity:1;fill-rule:nonzero;stroke:none"
         d="M 4649.18,7868.94 2062.77,7748.96 5309.81,7598.95 4649.18,7868.94" /><path
         id="path170"
         style="fill:#c14aac;fill-opacity:1;fill-rule:nonzero;stroke:none"
         d="M 0,7298.98 V 5595 L 2062.77,7748.96 0,7298.98" /><path
         id="path172"
         style="fill:#c14aac;fill-opacity:1;fill-rule:nonzero;stroke:none"
         d="M 980.422,8888.91 2062.77,7748.96 2653.14,9800 H 1964.37 L 980.422,8888.91" /><path
         id="path174"
         style="fill:#b43fa6;fill-opacity:1;fill-rule:nonzero;stroke:none"
         d="M 0,7976.93 V 7298.98 L 2062.77,7748.96 980.422,8888.91 0,7976.93" /><path
         id="path176"
         style="fill:#ab38a2;fill-opacity:1;fill-rule:nonzero;stroke:none"
         d="M 0,8663.92 980.422,8888.91 0,7976.93 v 686.99" /><path
         id="path178"
         style="fill:#a2319e;fill-opacity:1;fill-rule:nonzero;stroke:none"
         d="m 235.43,9800 h 866.24 L 980.422,8888.91 235.43,9800" /><path
         id="path180"
         style="fill:#a136a0;fill-opacity:1;fill-rule:nonzero;stroke:none"
         d="M 1964.37,9800 980.422,8888.91 1101.67,9800 h 862.7" /><path
         id="path182"
         style="fill:#c14aac;fill-opacity:1;fill-rule:nonzero;stroke:none"
         d="M 2062.77,7748.96 4649.18,9305 V 7868.94 L 2062.77,7748.96" /><path
         id="path184"
         style="fill:#c559b3;fill-opacity:1;fill-rule:nonzero;stroke:none"
         d="M 2062.77,7748.96 4649.18,9305 4213.42,9800 H 2653.14 L 2062.77,7748.96" /><path
         id="path186"
         style="fill:#b240a6;fill-opacity:1;fill-rule:nonzero;stroke:none"
         d="m 4902.18,9800 -253,-495 -435.76,495 h 688.76" /></g></g></svg>